<svg version="1.1" id="Layer_1" xmlns="http://www.w3.org/2000/svg" xmlns:xlink="http://www.w3.org/1999/xlink" x="0px" y="0px"
	 width="100%" viewBox="0 0 1080 1080" enable-background="new 0 0 1080 1080" xml:space="preserve">
<path fill="#FFFFFF" opacity="1.000000" stroke="none" 
	d="
M966.000000,1081.000000 
	C644.000000,1081.000000 322.500000,1081.000000 1.000000,1081.000000 
	C1.000000,721.000000 1.000000,361.000000 1.000000,1.000000 
	C361.000000,1.000000 721.000000,1.000000 1081.000000,1.000000 
	C1081.000000,361.000000 1081.000000,721.000000 1081.000000,1081.000000 
	C1042.833374,1081.000000 1004.666687,1081.000000 966.000000,1081.000000 
M575.137024,549.466675 
	C575.137024,542.484985 575.137024,535.503357 575.137024,528.426453 
	C571.703308,528.426453 568.620056,528.426453 565.038025,528.426453 
	C565.038025,534.798401 565.471313,540.968689 564.802856,547.017151 
	C564.569092,549.131470 561.898865,552.045288 559.829712,552.567810 
	C558.000610,553.029663 554.973999,551.121277 553.401794,549.409241 
	C552.322998,548.234375 552.687134,545.606384 552.654724,543.623901 
	C552.571533,538.533081 552.626892,533.440063 552.626892,528.169556 
	C546.181335,528.169556 540.508728,527.923645 534.878479,528.304443 
	C532.935303,528.435852 530.705994,529.745483 529.297546,531.189880 
	C526.759033,533.793274 524.740906,536.904053 522.505432,539.802917 
	C522.148560,539.642212 521.791626,539.481506 521.434753,539.320801 
	C521.434753,532.255920 521.434753,525.190979 521.434753,517.899292 
	C517.878723,517.899292 514.802917,517.899292 511.628479,517.899292 
	C511.628479,532.371155 511.628479,546.583862 511.628479,560.677551 
	C515.023376,560.677551 518.092163,560.677551 521.807739,560.677551 
	C521.807739,556.715210 521.807739,553.081482 521.807739,549.447754 
	C525.306702,552.717285 527.151550,557.254578 530.515808,559.335571 
	C533.791077,561.361572 538.621704,560.873169 542.769470,561.488708 
	C542.868042,561.052246 542.966614,560.615784 543.065186,560.179382 
	C538.766785,554.997192 534.468445,549.815063 530.152039,544.611206 
	C534.061584,539.916748 537.713257,535.531860 542.250916,530.083130 
	C542.443909,533.124573 542.605713,534.690613 542.630615,536.258850 
	C542.696655,540.422058 542.768127,544.586914 542.721130,548.749817 
	C542.613708,558.256714 552.669189,565.998901 564.479309,558.016907 
	C565.743408,561.447021 567.442322,561.837891 575.136963,560.389648 
	C575.136963,557.101440 575.136963,553.776428 575.137024,549.466675 
M459.072205,537.500977 
	C459.072205,545.266541 459.072205,553.032104 459.072205,560.754883 
	C462.749908,560.754883 465.833069,560.754883 469.377441,560.754883 
	C469.377441,552.965271 469.377441,545.421448 469.377441,537.877625 
	C474.170197,543.273560 478.004120,548.987732 481.804077,554.724365 
	C486.570068,561.919434 487.217682,562.192932 496.322815,560.254883 
	C496.322815,547.028809 496.322815,533.690674 496.322815,519.023193 
	C499.228729,523.447021 501.919556,526.536438 506.153839,524.165649 
	C507.782654,523.253662 509.618958,520.309326 509.243927,518.826294 
	C508.769257,516.949158 505.885925,514.128418 504.485535,514.363220 
	C501.620178,514.843628 499.051270,517.092041 496.360291,518.612366 
	C496.590515,519.095947 496.820709,519.579468 497.050934,520.063049 
	C493.444794,520.063049 489.838684,520.063049 485.959869,520.063049 
	C485.959869,524.221436 485.959900,528.206116 485.959900,532.190857 
	C485.959900,536.054626 485.959869,539.918457 485.959869,543.782227 
	C481.116455,537.957886 477.186768,532.031494 473.273407,526.094238 
	C468.521667,518.885132 468.006073,518.674377 459.072205,520.567688 
	C459.072205,525.854309 459.072205,531.178162 459.072205,537.500977 
M600.046936,528.068787 
	C596.114258,528.811462 592.181519,529.554138 588.226196,530.301086 
	C586.230164,525.427185 581.614563,529.402344 578.148865,528.078430 
	C578.148865,539.291443 578.148865,550.027649 578.148865,560.764404 
	C581.460754,560.764404 584.550232,560.764404 587.967346,560.764404 
	C587.967346,555.077148 587.923828,549.624390 587.979858,544.172607 
	C588.033508,538.949829 590.193359,536.285950 594.214050,536.301025 
	C598.190308,536.315918 600.300293,538.912598 600.398071,544.242981 
	C600.498047,549.694214 600.420166,555.148621 600.420166,560.779785 
	C603.928223,560.779785 606.995422,560.779785 610.285950,560.779785 
	C610.285950,553.929321 610.385498,547.299805 610.257385,540.674744 
	C610.134705,534.333008 607.160950,529.968689 600.046936,528.068787 
M622.966614,557.483521 
	C622.966614,547.766907 622.966614,538.050293 622.966614,528.305664 
	C619.272827,528.305664 616.309509,528.305664 612.930542,528.305664 
	C612.930542,539.189636 612.824707,549.944519 612.983582,560.695435 
	C613.045410,564.882263 613.325134,568.811890 607.660828,568.548706 
	C607.660828,571.383301 607.660828,573.813965 607.660828,576.191345 
	C618.398376,577.691833 622.893188,573.868835 622.964722,563.453552 
	C622.976135,561.793884 622.966553,560.134155 622.966614,557.483521 
M508.762238,559.137024 
	C508.762238,548.890259 508.762238,538.643555 508.762238,528.332886 
	C505.076019,528.332886 502.116272,528.332886 498.931915,528.332886 
	C498.931915,539.246155 498.931915,549.996399 498.931915,561.417053 
	C502.365387,560.943115 505.535065,560.505554 508.762238,559.137024 
M618.318359,514.028015 
	C616.244812,515.330139 613.566467,516.232422 612.336487,518.092346 
	C611.655701,519.121948 612.857056,522.553894 614.189941,523.457581 
	C615.772888,524.530762 618.626038,524.684937 620.517883,524.037231 
	C621.955505,523.545105 623.945068,520.756531 623.583862,519.731689 
	C622.829956,517.592529 620.683594,515.944153 618.318359,514.028015 
z"/>
<path fill="#030303" opacity="1.000000" stroke="none" 
	d="
M575.136963,549.959106 
	C575.136963,553.776428 575.136963,557.101440 575.136963,560.389648 
	C567.442322,561.837891 565.743408,561.447021 564.479309,558.016907 
	C552.669189,565.998901 542.613708,558.256714 542.721130,548.749817 
	C542.768127,544.586914 542.696655,540.422058 542.630615,536.258850 
	C542.605713,534.690613 542.443909,533.124573 542.250916,530.083130 
	C537.713257,535.531860 534.061584,539.916748 530.152039,544.611206 
	C534.468445,549.815063 538.766785,554.997192 543.065186,560.179382 
	C542.966614,560.615784 542.868042,561.052246 542.769470,561.488708 
	C538.621704,560.873169 533.791077,561.361572 530.515808,559.335571 
	C527.151550,557.254578 525.306702,552.717285 521.807739,549.447754 
	C521.807739,553.081482 521.807739,556.715210 521.807739,560.677551 
	C518.092163,560.677551 515.023376,560.677551 511.628479,560.677551 
	C511.628479,546.583862 511.628479,532.371155 511.628479,517.899292 
	C514.802917,517.899292 517.878723,517.899292 521.434753,517.899292 
	C521.434753,525.190979 521.434753,532.255920 521.434753,539.320801 
	C521.791626,539.481506 522.148560,539.642212 522.505432,539.802917 
	C524.740906,536.904053 526.759033,533.793274 529.297546,531.189880 
	C530.705994,529.745483 532.935303,528.435852 534.878479,528.304443 
	C540.508728,527.923645 546.181335,528.169556 552.626892,528.169556 
	C552.626892,533.440063 552.571533,538.533081 552.654724,543.623901 
	C552.687134,545.606384 552.322998,548.234375 553.401794,549.409241 
	C554.973999,551.121277 558.000610,553.029663 559.829712,552.567810 
	C561.898865,552.045288 564.569092,549.131470 564.802856,547.017151 
	C565.471313,540.968689 565.038025,534.798401 565.038025,528.426453 
	C568.620056,528.426453 571.703308,528.426453 575.137024,528.426453 
	C575.137024,535.503357 575.137024,542.484985 575.136963,549.959106 
z"/>
<path fill="#030303" opacity="1.000000" stroke="none" 
	d="
M459.072205,537.001465 
	C459.072205,531.178162 459.072205,525.854309 459.072205,520.567688 
	C468.006073,518.674377 468.521667,518.885132 473.273407,526.094238 
	C477.186768,532.031494 481.116455,537.957886 485.959869,543.782227 
	C485.959869,539.918457 485.959900,536.054626 485.959900,532.190857 
	C485.959900,528.206116 485.959869,524.221436 485.959869,520.063049 
	C489.838684,520.063049 493.444794,520.063049 497.050934,520.063049 
	C496.820709,519.579468 496.590515,519.095947 496.360291,518.612366 
	C499.051270,517.092041 501.620178,514.843628 504.485535,514.363220 
	C505.885925,514.128418 508.769257,516.949158 509.243927,518.826294 
	C509.618958,520.309326 507.782654,523.253662 506.153839,524.165649 
	C501.919556,526.536438 499.228729,523.447021 496.322815,519.023193 
	C496.322815,533.690674 496.322815,547.028809 496.322815,560.254883 
	C487.217682,562.192932 486.570068,561.919434 481.804077,554.724365 
	C478.004120,548.987732 474.170197,543.273560 469.377441,537.877625 
	C469.377441,545.421448 469.377441,552.965271 469.377441,560.754883 
	C465.833069,560.754883 462.749908,560.754883 459.072205,560.754883 
	C459.072205,553.032104 459.072205,545.266541 459.072205,537.001465 
z"/>
<path fill="#030303" opacity="1.000000" stroke="none" 
	d="
M600.455688,528.128418 
	C607.160950,529.968689 610.134705,534.333008 610.257385,540.674744 
	C610.385498,547.299805 610.285950,553.929321 610.285950,560.779785 
	C606.995422,560.779785 603.928223,560.779785 600.420166,560.779785 
	C600.420166,555.148621 600.498047,549.694214 600.398071,544.242981 
	C600.300293,538.912598 598.190308,536.315918 594.214050,536.301025 
	C590.193359,536.285950 588.033508,538.949829 587.979858,544.172607 
	C587.923828,549.624390 587.967346,555.077148 587.967346,560.764404 
	C584.550232,560.764404 581.460754,560.764404 578.148865,560.764404 
	C578.148865,550.027649 578.148865,539.291443 578.148865,528.078430 
	C581.614563,529.402344 586.230164,525.427185 588.226196,530.301086 
	C592.181519,529.554138 596.114258,528.811462 600.455688,528.128418 
z"/>
<path fill="#030303" opacity="1.000000" stroke="none" 
	d="
M622.966614,557.979004 
	C622.966553,560.134155 622.976135,561.793884 622.964722,563.453552 
	C622.893188,573.868835 618.398376,577.691833 607.660828,576.191345 
	C607.660828,573.813965 607.660828,571.383301 607.660828,568.548706 
	C613.325134,568.811890 613.045410,564.882263 612.983582,560.695435 
	C612.824707,549.944519 612.930542,539.189636 612.930542,528.305664 
	C616.309509,528.305664 619.272827,528.305664 622.966614,528.305664 
	C622.966614,538.050293 622.966614,547.766907 622.966614,557.979004 
z"/>
<path fill="#030303" opacity="1.000000" stroke="none" 
	d="
M508.733521,559.602539 
	C505.535065,560.505554 502.365387,560.943115 498.931915,561.417053 
	C498.931915,549.996399 498.931915,539.246155 498.931915,528.332886 
	C502.116272,528.332886 505.076019,528.332886 508.762238,528.332886 
	C508.762238,538.643555 508.762238,548.890259 508.733521,559.602539 
z"/>
<path fill="#030303" opacity="1.000000" stroke="none" 
	d="
M618.713806,514.061035 
	C620.683594,515.944153 622.829956,517.592529 623.583862,519.731689 
	C623.945068,520.756531 621.955505,523.545105 620.517883,524.037231 
	C618.626038,524.684937 615.772888,524.530762 614.189941,523.457581 
	C612.857056,522.553894 611.655701,519.121948 612.336487,518.092346 
	C613.566467,516.232422 616.244812,515.330139 618.713806,514.061035 
z"/>
</svg>